<svg xmlns="http://www.w3.org/2000/svg" viewBox="0 0 24 24">
  <path d="M20.994,8.699l-5.78-0.49l-2.261-5.335c-0.357-0.841-1.549-0.841-1.906,0L8.786,8.209l-5.78,0.49 c-0.912,0.077-1.282,1.214-0.59,1.813l4.391,3.804l-1.319,5.653C5.28,20.86,6.247,21.563,7.031,21.09L12,18.091l4.969,2.999 c0.784,0.473,1.751-0.23,1.543-1.121l-1.319-5.653l4.391-3.804C22.276,9.913,21.906,8.776,20.994,8.699z M15.883,12.804l-0.912,0.79 l0.274,1.176l0.799,3.426l-3.011-1.817L12,15.755V5.751l1.373,3.239l0.471,1.111l1.202,0.102l3.5,0.297L15.883,12.804z" fill="#9FA5B6" />
</svg>